<?xml version="1.0" encoding="UTF-8"?>
<!DOCTYPE svg PUBLIC "-//W3C//DTD SVG 1.1//EN" "http://www.w3.org/Graphics/SVG/1.1/DTD/svg11.dtd">
<!-- Creator: CorelDRAW -->
<svg xmlns="http://www.w3.org/2000/svg" xml:space="preserve" width="51.2232mm" height="10.1598mm" version="1.1" style="shape-rendering:geometricPrecision; text-rendering:geometricPrecision; image-rendering:optimizeQuality; fill-rule:evenodd; clip-rule:evenodd"
viewBox="0 0 5122.32 1015.98"
 xmlns:xlink="http://www.w3.org/1999/xlink"
 xmlns:xodm="http://www.corel.com/coreldraw/odm/2003">
 <defs>
  <style type="text/css">
   <![CDATA[
    .fil0 {fill:#4267B0;fill-rule:nonzero}
   ]]>
  </style>
 </defs>
 <g id="Layer_x0020_1">
  <metadata id="CorelCorpID_0Corel-Layer"/>
  <path class="fil0" d="M16.94 994.58l0 -978.47 224.19 0 0 421.7 355.45 -421.7 251.52 0 -363.61 436.86 388.24 541.61 -255.65 0 -274.8 -394.14 -101.15 106.11 0 288.03 -224.19 0zm1216.69 13.78c-61.07,0 -115.53,-10.09 -163.36,-30.3 -47.83,-20.24 -88.16,-47.55 -120.98,-82.01 -32.8,-34.47 -57.64,-74.42 -74.48,-119.92 -16.9,-45.46 -25.32,-93.01 -25.32,-142.61 0,-49.63 8.42,-97.18 25.32,-142.65 16.84,-45.46 41.68,-85.45 74.48,-119.88 32.82,-34.46 73.15,-62.02 120.98,-82.7 47.83,-20.66 102.29,-31 163.36,-31 61.08,0 115.31,10.34 162.7,31 47.36,20.68 87.47,48.24 120.3,82.7 32.79,34.43 57.86,74.42 75.17,119.88 17.31,45.47 25.98,93.02 25.98,142.65 0,49.6 -8.42,97.15 -25.29,142.61 -16.84,45.5 -41.68,85.45 -74.51,119.92 -32.79,34.46 -73.15,61.77 -120.98,82.01 -47.84,20.21 -102.29,30.3 -163.37,30.3zm-159.92 -374.84c0,56.94 15.04,102.66 45.09,137.13 30.08,34.43 68.36,51.68 114.83,51.68 22.8,0 43.74,-4.61 62.88,-13.78 19.14,-9.21 35.78,-22.07 49.88,-38.6 14.16,-16.55 25.32,-36.51 33.52,-59.94 8.23,-23.45 12.33,-48.93 12.33,-76.49 0,-56.98 -15.04,-102.67 -45.16,-137.13 -30.05,-34.46 -67.85,-51.68 -113.45,-51.68 -22.79,0 -43.95,4.61 -63.56,13.78 -19.58,9.18 -36.45,22.04 -50.58,38.6 -14.16,16.52 -25.29,36.51 -33.52,59.94 -8.19,23.42 -12.26,48.93 -12.26,76.49zm935.02 374.84c-61.04,0 -121.2,-9.87 -180.42,-29.64 -59.25,-19.74 -109.38,-48.46 -150.4,-86.11l77.91 -135.08c43.77,30.33 86.36,53.76 127.83,70.28 41.49,16.56 81.38,24.82 119.63,24.82 28.25,0 50.13,-5.05 65.61,-15.17 15.52,-10.09 23.24,-24.78 23.24,-44.08 0,-19.29 -9.81,-34.68 -29.39,-46.16 -19.61,-11.51 -54.01,-23.68 -103.2,-36.54 -48.33,-13.78 -89.07,-27.09 -122.37,-39.95 -33.26,-12.87 -60.35,-27.12 -81.35,-42.73 -20.94,-15.61 -35.98,-33.55 -45.09,-53.76 -9.11,-20.21 -13.68,-44.08 -13.68,-71.64 0,-36.76 7.31,-70.28 21.88,-100.61 14.6,-30.34 34.65,-56.03 60.13,-77.19 25.54,-21.13 55.84,-37.65 90.93,-49.6 35.1,-11.95 73.12,-17.91 114.18,-17.91 53.76,0 104.11,7.35 151.03,22.04 46.95,14.7 92.26,41.34 136.03,79.93l-84.76 132.31c-41.02,-28.48 -77.47,-49.16 -109.35,-62.02 -31.91,-12.87 -62.9,-19.3 -92.95,-19.3 -23.71,0 -43.77,4.82 -60.19,14.47 -16.4,9.65 -24.6,25.04 -24.6,46.16 0,20.21 8.89,35.38 26.68,45.5 17.75,10.09 50.76,21.13 99.1,33.08 51.02,13.78 94.09,27.56 129.18,41.34 35.1,13.77 63.57,29.16 85.45,46.16 21.85,16.99 37.81,36.51 47.83,58.58 10.03,22.04 15.04,48.21 15.04,78.55 0,71.67 -26.42,128.61 -79.3,170.89 -52.84,42.25 -124.39,63.38 -214.63,63.38zm1533.86 -13.78l-218.73 0 0 -406.56c0,-47.77 -8.64,-82.45 -25.98,-104.02 -17.28,-21.6 -39.64,-32.41 -67.01,-32.41 -14.56,0 -29.35,3.21 -44.39,9.64 -15.04,6.44 -28.95,15.39 -41.72,26.9 -12.73,11.48 -24.34,25.04 -34.87,40.64 -10.47,15.61 -18.89,32.61 -25.26,50.99l0 414.82 -218.73 0 0 -406.56c0,-47.77 -8.67,-82.45 -25.98,-104.02 -17.31,-21.6 -39.63,-32.41 -66.97,-32.41 -29.2,0 -57.64,11.73 -85.45,35.15 -27.81,23.43 -48.08,54.43 -60.82,93.02l0 414.82 -218.73 0 0 -723.51 196.84 0 0 121.27c26.43,-44.11 62.18,-77.63 107.34,-100.62 45.09,-22.95 97.71,-34.43 157.87,-34.43 30.05,0 56.28,3.66 78.61,11.01 22.32,7.37 41.68,17.46 58.11,30.33 16.4,12.86 29.61,27.78 39.64,44.77 10.02,17 17.31,35.16 21.85,54.46 27.37,-45.03 63.34,-79.71 107.99,-104.06 44.68,-24.34 95.73,-36.51 153.11,-36.51 45.57,0 82.27,8.48 110.08,25.48 27.81,16.99 49.44,39.07 64.92,66.15 15.48,27.12 25.73,56.76 30.75,88.89 5.04,32.16 7.53,63.41 7.53,93.71l0 463.06zm485.33 13.78c-61.11,0 -115.56,-10.09 -163.37,-30.3 -47.86,-20.24 -88.19,-47.55 -120.98,-82.01 -32.82,-34.47 -57.67,-74.42 -74.51,-119.92 -16.9,-45.46 -25.32,-93.01 -25.32,-142.61 0,-49.63 8.42,-97.18 25.32,-142.65 16.84,-45.46 41.69,-85.45 74.51,-119.88 32.79,-34.46 73.12,-62.02 120.98,-82.7 47.81,-20.66 102.26,-31 163.37,-31 61.04,0 115.27,10.34 162.67,31 47.39,20.68 87.46,48.24 120.29,82.7 32.79,34.43 57.86,74.42 75.2,119.88 17.28,45.47 25.95,93.02 25.95,142.65 0,49.6 -8.42,97.15 -25.29,142.61 -16.84,45.5 -41.68,85.45 -74.51,119.92 -32.79,34.46 -73.15,61.77 -120.95,82.01 -47.86,20.21 -102.32,30.3 -163.36,30.3zm-159.96 -374.84c0,56.94 15.04,102.66 45.09,137.13 30.08,34.43 68.36,51.68 114.87,51.68 22.76,0 43.7,-4.61 62.84,-13.78 19.14,-9.21 35.79,-22.07 49.91,-38.6 14.13,-16.55 25.29,-36.51 33.49,-59.94 8.23,-23.45 12.33,-48.93 12.33,-76.49 0,-56.98 -15.04,-102.67 -45.16,-137.13 -30.04,-34.46 -67.85,-51.68 -113.41,-51.68 -22.83,0 -43.99,4.61 -63.6,13.78 -19.58,9.18 -36.45,22.04 -50.58,38.6 -14.15,16.52 -25.28,36.51 -33.51,59.94 -8.17,23.42 -12.27,48.93 -12.27,76.49zm935.02 374.84c-61.04,0 -121.17,-9.87 -180.42,-29.64 -59.25,-19.74 -109.38,-48.46 -150.4,-86.11l77.91 -135.08c43.77,30.33 86.37,53.76 127.86,70.28 41.46,16.56 81.35,24.82 119.6,24.82 28.28,0 50.13,-5.05 65.61,-15.17 15.52,-10.09 23.24,-24.78 23.24,-44.08 0,-19.29 -9.8,-34.68 -29.35,-46.16 -19.62,-11.51 -54.05,-23.68 -103.24,-36.54 -48.33,-13.78 -89.07,-27.09 -122.37,-39.95 -33.26,-12.87 -60.35,-27.12 -81.35,-42.73 -20.93,-15.61 -35.98,-33.55 -45.09,-53.76 -9.11,-20.21 -13.68,-44.08 -13.68,-71.64 0,-36.76 7.31,-70.28 21.88,-100.61 14.6,-30.34 34.65,-56.03 60.13,-77.19 25.54,-21.13 55.84,-37.65 90.94,-49.6 35.09,-11.95 73.12,-17.91 114.17,-17.91 53.76,0 104.12,7.35 151.03,22.04 46.95,14.7 92.26,41.34 136.03,79.93l-84.76 132.31c-41.02,-28.48 -77.47,-49.16 -109.35,-62.02 -31.91,-12.87 -62.9,-19.3 -92.95,-19.3 -23.71,0 -43.77,4.82 -60.19,14.47 -16.4,9.65 -24.6,25.04 -24.6,46.16 0,20.21 8.89,35.38 26.68,45.5 17.75,10.09 50.79,21.13 99.1,33.08 51.02,13.78 94.09,27.56 129.18,41.34 35.1,13.77 63.57,29.16 85.45,46.16 21.85,16.99 37.81,36.51 47.83,58.58 10.03,22.04 15.05,48.21 15.05,78.55 0,71.67 -26.43,128.61 -79.31,170.89 -52.84,42.25 -124.39,63.38 -214.63,63.38z"/>
 </g>
</svg>
